<svg width="960" height="640" viewBox="0 0 960 640" fill="none" xmlns="http://www.w3.org/2000/svg">
<rect width="960" height="640" fill="#D9D1BF"/>
<rect y="395" width="960" height="245" fill="#A98458"/>
<rect x="45" y="75" width="395" height="320" rx="9" fill="#EEE8DA"/>
<rect x="76" y="110" width="178" height="180" rx="4" fill="#B9C6B7"/>
<path d="M76 233C119 197 148 224 184 204C210 190 231 208 254 183V290H76V233Z" fill="#7C9272"/>
<rect x="277" y="110" width="132" height="22" rx="4" fill="#C69B52"/>
<rect x="277" y="151" width="103" height="13" rx="4" fill="#D3C7B1"/>
<rect x="277" y="180" width="114" height="13" rx="4" fill="#D3C7B1"/>
<rect x="277" y="209" width="83" height="13" rx="4" fill="#D3C7B1"/>
<path d="M543 97C580 60 657 60 695 97V339H543V97Z" fill="#4A594A"/>
<circle cx="619" cy="129" r="35" fill="#C4916A"/>
<path d="M563 289C567 219 603 184 620 184C647 184 682 224 686 289H563Z" fill="#202A2B"/>
<rect x="737" y="161" width="156" height="190" rx="8" fill="#ECE3D4"/>
<rect x="758" y="189" width="114" height="12" rx="4" fill="#C69B52"/>
<rect x="758" y="220" width="97" height="10" rx="4" fill="#CFC0A7"/>
<rect x="758" y="247" width="88" height="10" rx="4" fill="#CFC0A7"/>
<rect x="758" y="274" width="103" height="10" rx="4" fill="#CFC0A7"/>
<circle cx="809" cy="319" r="18" fill="#6A855B"/>
<rect x="0" y="0" width="960" height="640" fill="url(#v)" fill-opacity=".2"/>
<defs><linearGradient id="v" x1="480" y1="0" x2="480" y2="640" gradientUnits="userSpaceOnUse"><stop stop-color="#fff" stop-opacity=".7"/><stop offset="1" stop-opacity="0"/></linearGradient></defs>
</svg>
